<?xml version="1.0" encoding="UTF-8" standalone="no"?>
<!-- Created with Inkscape (http://www.inkscape.org/) -->

<svg
   xmlns:dc="http://purl.org/dc/elements/1.1/"
   xmlns:cc="http://creativecommons.org/ns#"
   xmlns:rdf="http://www.w3.org/1999/02/22-rdf-syntax-ns#"
   xmlns:svg="http://www.w3.org/2000/svg"
   xmlns="http://www.w3.org/2000/svg"
   xmlns:sodipodi="http://sodipodi.sourceforge.net/DTD/sodipodi-0.dtd"
   xmlns:inkscape="http://www.inkscape.org/namespaces/inkscape"
   width="1050"
   height="275"
   id="svg2"
   version="1.1"
   inkscape:version="0.48.2 r9819"
   sodipodi:docname="graph2_steps.pdf">
  <defs
     id="defs4" />
  <sodipodi:namedview
     id="base"
     pagecolor="#ffffff"
     bordercolor="#666666"
     borderopacity="1.0"
     inkscape:pageopacity="0.0"
     inkscape:pageshadow="2"
     inkscape:zoom="0.49497475"
     inkscape:cx="613.7293"
     inkscape:cy="287.52044"
     inkscape:document-units="px"
     inkscape:current-layer="g3759"
     showgrid="false"
     inkscape:window-width="1360"
     inkscape:window-height="706"
     inkscape:window-x="-8"
     inkscape:window-y="-8"
     inkscape:window-maximized="1" />
  <metadata
     id="metadata7">
    <rdf:RDF>
      <cc:Work
         rdf:about="">
        <dc:format>image/svg+xml</dc:format>
        <dc:type
           rdf:resource="http://purl.org/dc/dcmitype/StillImage" />
        <dc:title></dc:title>
      </cc:Work>
    </rdf:RDF>
  </metadata>
  <g
     inkscape:label="Layer 1"
     inkscape:groupmode="layer"
     id="layer1"
     transform="translate(0,-777.36218)">
    <g
       id="g3759">
      <path
         transform="matrix(0.22723498,0,0,0.29609406,-10.965268,787.30244)"
         d="m 273.75133,231.29942 c 0,18.41043 -19.44721,33.33504 -43.43656,33.33504 -23.98934,0 -43.43655,-14.92461 -43.43655,-33.33504 0,-18.41043 19.44721,-33.33503 43.43655,-33.33503 23.98935,0 43.43656,14.9246 43.43656,33.33503 z"
         sodipodi:ry="33.335033"
         sodipodi:rx="43.436558"
         sodipodi:cy="231.29942"
         sodipodi:cx="230.31477"
         id="path2989"
         style="fill:none;stroke:#000000;stroke-width:11.56561756;stroke-miterlimit:4;stroke-opacity:1;stroke-dasharray:none"
         sodipodi:type="arc" />
      <flowRoot
         xml:space="preserve"
         id="flowRoot3918"
         style="font-size:20px;font-style:normal;font-weight:normal;line-height:125%;letter-spacing:0px;word-spacing:0px;fill:#000000;fill-opacity:1;stroke:none;font-family:Sans"
         transform="matrix(1.0606344,0,0,0.94484985,281.65038,753.15616)"><flowRegion
           id="flowRegion3920"><rect
             id="rect3922"
             width="88.893425"
             height="62.629459"
             x="27.274118"
             y="144.4263"
             style="font-size:20px" /></flowRegion><flowPara
           id="flowPara3924">P<flowSpan
   style="font-size:65.00091553%;baseline-shift:sub"
   id="flowSpan3926">1</flowSpan></flowPara></flowRoot>      <flowRoot
         xml:space="preserve"
         id="flowRoot3918-6-1"
         style="font-size:20px;font-style:normal;font-weight:normal;line-height:125%;letter-spacing:0px;word-spacing:0px;fill:#000000;fill-opacity:1;stroke:none;font-family:Sans"
         transform="matrix(1.0606344,0,0,0.94484985,-19.956278,685.27019)"><flowRegion
           id="flowRegion3920-8-8"><rect
             id="rect3922-5-9"
             width="88.893425"
             height="62.629459"
             x="27.274118"
             y="144.4263"
             style="font-size:20px" /></flowRegion><flowPara
           id="flowPara3924-7-2">E<flowSpan
   style="font-size:64.9307251%;baseline-shift:sub"
   id="flowSpan4009">1</flowSpan></flowPara></flowRoot>      <path
         transform="matrix(0.22723498,0,0,0.29609406,109.84441,787.30244)"
         d="m 273.75133,231.29942 c 0,18.41043 -19.44721,33.33504 -43.43656,33.33504 -23.98934,0 -43.43655,-14.92461 -43.43655,-33.33504 0,-18.41043 19.44721,-33.33503 43.43655,-33.33503 23.98935,0 43.43656,14.9246 43.43656,33.33503 z"
         sodipodi:ry="33.335033"
         sodipodi:rx="43.436558"
         sodipodi:cy="231.29942"
         sodipodi:cx="230.31477"
         id="path2989-2"
         style="fill:none;stroke:#000000;stroke-width:11.56561756;stroke-miterlimit:4;stroke-opacity:1;stroke-dasharray:none"
         sodipodi:type="arc" />
      <path
         transform="matrix(0.22723498,0,0,0.29609406,259.03473,857.30244)"
         d="m 273.75133,231.29942 c 0,18.41043 -19.44721,33.33504 -43.43656,33.33504 -23.98934,0 -43.43655,-14.92461 -43.43655,-33.33504 0,-18.41043 19.44721,-33.33503 43.43655,-33.33503 23.98935,0 43.43656,14.9246 43.43656,33.33503 z"
         sodipodi:ry="33.335033"
         sodipodi:rx="43.436558"
         sodipodi:cy="231.29942"
         sodipodi:cx="230.31477"
         id="path2989-1"
         style="fill:none;stroke:#000000;stroke-width:11.56561756;stroke-miterlimit:4;stroke-opacity:1;stroke-dasharray:none"
         sodipodi:type="arc" />
      <path
         transform="matrix(0.22723498,0,0,0.29609406,-10.965268,937.30244)"
         d="m 273.75133,231.29942 c 0,18.41043 -19.44721,33.33504 -43.43656,33.33504 -23.98934,0 -43.43655,-14.92461 -43.43655,-33.33504 0,-18.41043 19.44721,-33.33503 43.43655,-33.33503 23.98935,0 43.43656,14.9246 43.43656,33.33503 z"
         sodipodi:ry="33.335033"
         sodipodi:rx="43.436558"
         sodipodi:cy="231.29942"
         sodipodi:cx="230.31477"
         id="path2989-13"
         style="fill:none;stroke:#000000;stroke-width:11.56561756;stroke-miterlimit:4;stroke-opacity:1;stroke-dasharray:none"
         sodipodi:type="arc" />
      <path
         transform="matrix(0.22723498,0,0,0.29609406,109.84441,937.30244)"
         d="m 273.75133,231.29942 c 0,18.41043 -19.44721,33.33504 -43.43656,33.33504 -23.98934,0 -43.43655,-14.92461 -43.43655,-33.33504 0,-18.41043 19.44721,-33.33503 43.43655,-33.33503 23.98935,0 43.43656,14.9246 43.43656,33.33503 z"
         sodipodi:ry="33.335033"
         sodipodi:rx="43.436558"
         sodipodi:cy="231.29942"
         sodipodi:cx="230.31477"
         id="path2989-2-8"
         style="fill:none;stroke:#000000;stroke-width:11.56561756;stroke-miterlimit:4;stroke-opacity:1;stroke-dasharray:none"
         sodipodi:type="arc" />
      <path
         style="fill:none;stroke:#000000;stroke-width:1px;stroke-linecap:butt;stroke-linejoin:miter;stroke-opacity:1"
         d="m 52.14286,855.73056 99.28571,0"
         id="path4110"
         inkscape:connector-curvature="0" />
      <path
         style="fill:none;stroke:#000000;stroke-width:1px;stroke-linecap:butt;stroke-linejoin:miter;stroke-opacity:1"
         d="m 172.14286,856.44485 130,63.57142"
         id="path4112"
         inkscape:connector-curvature="0" />
      <path
         style="fill:none;stroke:#000000;stroke-width:1px;stroke-linecap:butt;stroke-linejoin:miter;stroke-opacity:1"
         d="M 303.57143,932.15913 171.42857,1002.1591"
         id="path4114"
         inkscape:connector-curvature="0" />
      <path
         style="fill:none;stroke:#000000;stroke-width:1px;stroke-linecap:butt;stroke-linejoin:miter;stroke-opacity:1"
         d="m 162.85714,995.73055 0,-130.71428"
         id="path4116"
         inkscape:connector-curvature="0" />
      <path
         style="fill:none;stroke:#000000;stroke-width:1px;stroke-linecap:butt;stroke-linejoin:miter;stroke-opacity:1"
         d="m 50,1006.4448 101.42857,0"
         id="path4118"
         inkscape:connector-curvature="0" />
      <path
         style="fill:none;stroke:#000000;stroke-width:1px;stroke-linecap:butt;stroke-linejoin:miter;stroke-opacity:1"
         d="m 41.428572,995.01625 0,-129.99998"
         id="path4120"
         inkscape:connector-curvature="0" />
      <path
         transform="matrix(0.22723498,0,0,0.29609406,352.4156,787.30245)"
         d="m 273.75133,231.29942 c 0,18.41043 -19.44721,33.33504 -43.43656,33.33504 -23.98934,0 -43.43655,-14.92461 -43.43655,-33.33504 0,-18.41043 19.44721,-33.33503 43.43655,-33.33503 23.98935,0 43.43656,14.9246 43.43656,33.33503 z"
         sodipodi:ry="33.335033"
         sodipodi:rx="43.436558"
         sodipodi:cy="231.29942"
         sodipodi:cx="230.31477"
         id="path2989-7"
         style="fill:none;stroke:#000000;stroke-width:11.56561756;stroke-miterlimit:4;stroke-opacity:1;stroke-dasharray:none"
         sodipodi:type="arc" />
      <flowRoot
         xml:space="preserve"
         id="flowRoot3918-4"
         style="font-size:20px;font-style:normal;font-weight:normal;line-height:125%;letter-spacing:0px;word-spacing:0px;fill:#000000;fill-opacity:1;stroke:none;font-family:Sans"
         transform="matrix(1.0606344,0,0,0.94484985,469.31696,685.29903)"><flowRegion
           id="flowRegion3920-2"><rect
             id="rect3922-7"
             width="88.893425"
             height="62.629459"
             x="27.274118"
             y="144.4263"
             style="font-size:20px" /></flowRegion><flowPara
           id="flowPara3924-7">P<flowSpan
   style="font-size:65.00091553%;baseline-shift:sub"
   id="flowSpan3926-9">1</flowSpan></flowPara></flowRoot>      <flowRoot
         xml:space="preserve"
         id="flowRoot3918-6-1-3"
         style="font-size:20px;font-style:normal;font-weight:normal;line-height:125%;letter-spacing:0px;word-spacing:0px;fill:#000000;fill-opacity:1;stroke:none;font-family:Sans"
         transform="matrix(1.0606344,0,0,0.94484985,343.42459,838.12733)"><flowRegion
           id="flowRegion3920-8-8-1"><rect
             id="rect3922-5-9-9"
             width="88.893425"
             height="62.629459"
             x="27.274118"
             y="144.4263"
             style="font-size:20px" /></flowRegion><flowPara
           id="flowPara3924-7-2-8">E<flowSpan
   style="font-size:64.9307251%;baseline-shift:sub"
   id="flowSpan4009-6">1</flowSpan></flowPara></flowRoot>      <path
         transform="matrix(0.22723498,0,0,0.29609406,473.22528,787.30245)"
         d="m 273.75133,231.29942 c 0,18.41043 -19.44721,33.33504 -43.43656,33.33504 -23.98934,0 -43.43655,-14.92461 -43.43655,-33.33504 0,-18.41043 19.44721,-33.33503 43.43655,-33.33503 23.98935,0 43.43656,14.9246 43.43656,33.33503 z"
         sodipodi:ry="33.335033"
         sodipodi:rx="43.436558"
         sodipodi:cy="231.29942"
         sodipodi:cx="230.31477"
         id="path2989-2-5"
         style="fill:none;stroke:#000000;stroke-width:11.56561756;stroke-miterlimit:4;stroke-opacity:1;stroke-dasharray:none"
         sodipodi:type="arc" />
      <path
         transform="matrix(0.22723498,0,0,0.29609406,622.4156,857.30245)"
         d="m 273.75133,231.29942 c 0,18.41043 -19.44721,33.33504 -43.43656,33.33504 -23.98934,0 -43.43655,-14.92461 -43.43655,-33.33504 0,-18.41043 19.44721,-33.33503 43.43655,-33.33503 23.98935,0 43.43656,14.9246 43.43656,33.33503 z"
         sodipodi:ry="33.335033"
         sodipodi:rx="43.436558"
         sodipodi:cy="231.29942"
         sodipodi:cx="230.31477"
         id="path2989-1-0"
         style="fill:none;stroke:#000000;stroke-width:11.56561756;stroke-miterlimit:4;stroke-opacity:1;stroke-dasharray:none"
         sodipodi:type="arc" />
      <path
         transform="matrix(0.22723498,0,0,0.29609406,352.4156,937.30244)"
         d="m 273.75133,231.29942 c 0,18.41043 -19.44721,33.33504 -43.43656,33.33504 -23.98934,0 -43.43655,-14.92461 -43.43655,-33.33504 0,-18.41043 19.44721,-33.33503 43.43655,-33.33503 23.98935,0 43.43656,14.9246 43.43656,33.33503 z"
         sodipodi:ry="33.335033"
         sodipodi:rx="43.436558"
         sodipodi:cy="231.29942"
         sodipodi:cx="230.31477"
         id="path2989-13-2"
         style="fill:none;stroke:#000000;stroke-width:11.56561756;stroke-miterlimit:4;stroke-opacity:1;stroke-dasharray:none"
         sodipodi:type="arc" />
      <path
         transform="matrix(0.22723498,0,0,0.29609406,473.22528,937.30244)"
         d="m 273.75133,231.29942 c 0,18.41043 -19.44721,33.33504 -43.43656,33.33504 -23.98934,0 -43.43655,-14.92461 -43.43655,-33.33504 0,-18.41043 19.44721,-33.33503 43.43655,-33.33503 23.98935,0 43.43656,14.9246 43.43656,33.33503 z"
         sodipodi:ry="33.335033"
         sodipodi:rx="43.436558"
         sodipodi:cy="231.29942"
         sodipodi:cx="230.31477"
         id="path2989-2-8-8"
         style="fill:none;stroke:#000000;stroke-width:11.56561756;stroke-miterlimit:4;stroke-opacity:1;stroke-dasharray:none"
         sodipodi:type="arc" />
      <path
         style="fill:none;stroke:#000000;stroke-width:1px;stroke-linecap:butt;stroke-linejoin:miter;stroke-opacity:1"
         d="m 415.52373,855.73057 99.28571,0"
         id="path4110-6"
         inkscape:connector-curvature="0" />
      <path
         style="fill:none;stroke:#000000;stroke-width:1px;stroke-linecap:butt;stroke-linejoin:miter;stroke-opacity:1"
         d="m 535.52373,856.44486 130,63.57142"
         id="path4112-0"
         inkscape:connector-curvature="0" />
      <path
         style="fill:none;stroke:#000000;stroke-width:1px;stroke-linecap:butt;stroke-linejoin:miter;stroke-opacity:1"
         d="M 666.9523,932.15913 534.80944,1002.1591"
         id="path4114-2"
         inkscape:connector-curvature="0" />
      <path
         style="fill:none;stroke:#000000;stroke-width:1px;stroke-linecap:butt;stroke-linejoin:miter;stroke-opacity:1"
         d="m 526.23801,995.73055 0,-130.71427"
         id="path4116-4"
         inkscape:connector-curvature="0" />
      <path
         style="fill:none;stroke:#000000;stroke-width:1px;stroke-linecap:butt;stroke-linejoin:miter;stroke-opacity:1"
         d="m 413.38087,1006.4448 101.42857,0"
         id="path4118-8"
         inkscape:connector-curvature="0" />
      <path
         style="fill:none;stroke:#000000;stroke-width:1px;stroke-linecap:butt;stroke-linejoin:miter;stroke-opacity:1"
         d="m 404.80944,995.01625 0,-129.99997"
         id="path4120-6"
         inkscape:connector-curvature="0" />
      <path
         transform="matrix(0.22723498,0,0,0.29609406,708.02835,787.30245)"
         d="m 273.75133,231.29942 c 0,18.41043 -19.44721,33.33504 -43.43656,33.33504 -23.98934,0 -43.43655,-14.92461 -43.43655,-33.33504 0,-18.41043 19.44721,-33.33503 43.43655,-33.33503 23.98935,0 43.43656,14.9246 43.43656,33.33503 z"
         sodipodi:ry="33.335033"
         sodipodi:rx="43.436558"
         sodipodi:cy="231.29942"
         sodipodi:cx="230.31477"
         id="path2989-5"
         style="fill:none;stroke:#000000;stroke-width:11.56561756;stroke-miterlimit:4;stroke-opacity:1;stroke-dasharray:none"
         sodipodi:type="arc" />
      <flowRoot
         xml:space="preserve"
         id="flowRoot3918-0"
         style="font-size:20px;font-style:normal;font-weight:normal;line-height:125%;letter-spacing:0px;word-spacing:0px;fill:#000000;fill-opacity:1;stroke:none;font-family:Sans"
         transform="matrix(1.0606344,0,0,0.94484985,824.92966,833.87046)"><flowRegion
           id="flowRegion3920-9"><rect
             id="rect3922-0"
             width="88.893425"
             height="62.629459"
             x="27.274118"
             y="144.4263"
             style="font-size:20px" /></flowRegion><flowPara
           id="flowPara3924-0">P<flowSpan
   style="font-size:65.00091553%;baseline-shift:sub"
   id="flowSpan3926-6">1</flowSpan></flowPara></flowRoot>      <flowRoot
         xml:space="preserve"
         id="flowRoot3918-6-1-1"
         style="font-size:20px;font-style:normal;font-weight:normal;line-height:125%;letter-spacing:0px;word-spacing:0px;fill:#000000;fill-opacity:1;stroke:none;font-family:Sans"
         transform="matrix(1.0606344,0,0,0.94484985,801.1802,834.5559)"><flowRegion
           id="flowRegion3920-8-8-3"><rect
             id="rect3922-5-9-8"
             width="88.893425"
             height="62.629459"
             x="27.274118"
             y="144.4263"
             style="font-size:20px" /></flowRegion><flowPara
           id="flowPara3924-7-2-9">E<flowSpan
   style="font-size:64.9307251%;baseline-shift:sub"
   id="flowSpan4009-3">1</flowSpan></flowPara></flowRoot>      <path
         transform="matrix(0.22723498,0,0,0.29609406,828.83803,787.30245)"
         d="m 273.75133,231.29942 c 0,18.41043 -19.44721,33.33504 -43.43656,33.33504 -23.98934,0 -43.43655,-14.92461 -43.43655,-33.33504 0,-18.41043 19.44721,-33.33503 43.43655,-33.33503 23.98935,0 43.43656,14.9246 43.43656,33.33503 z"
         sodipodi:ry="33.335033"
         sodipodi:rx="43.436558"
         sodipodi:cy="231.29942"
         sodipodi:cx="230.31477"
         id="path2989-2-4"
         style="fill:none;stroke:#000000;stroke-width:11.56561756;stroke-miterlimit:4;stroke-opacity:1;stroke-dasharray:none"
         sodipodi:type="arc" />
      <path
         transform="matrix(0.22723498,0,0,0.29609406,978.02835,857.30245)"
         d="m 273.75133,231.29942 c 0,18.41043 -19.44721,33.33504 -43.43656,33.33504 -23.98934,0 -43.43655,-14.92461 -43.43655,-33.33504 0,-18.41043 19.44721,-33.33503 43.43655,-33.33503 23.98935,0 43.43656,14.9246 43.43656,33.33503 z"
         sodipodi:ry="33.335033"
         sodipodi:rx="43.436558"
         sodipodi:cy="231.29942"
         sodipodi:cx="230.31477"
         id="path2989-1-4"
         style="fill:none;stroke:#000000;stroke-width:11.56561756;stroke-miterlimit:4;stroke-opacity:1;stroke-dasharray:none"
         sodipodi:type="arc" />
      <path
         transform="matrix(0.22723498,0,0,0.29609406,708.02835,937.30244)"
         d="m 273.75133,231.29942 c 0,18.41043 -19.44721,33.33504 -43.43656,33.33504 -23.98934,0 -43.43655,-14.92461 -43.43655,-33.33504 0,-18.41043 19.44721,-33.33503 43.43655,-33.33503 23.98935,0 43.43656,14.9246 43.43656,33.33503 z"
         sodipodi:ry="33.335033"
         sodipodi:rx="43.436558"
         sodipodi:cy="231.29942"
         sodipodi:cx="230.31477"
         id="path2989-13-6"
         style="fill:none;stroke:#000000;stroke-width:11.56561756;stroke-miterlimit:4;stroke-opacity:1;stroke-dasharray:none"
         sodipodi:type="arc" />
      <path
         transform="matrix(0.22723498,0,0,0.29609406,828.83803,937.30244)"
         d="m 273.75133,231.29942 c 0,18.41043 -19.44721,33.33504 -43.43656,33.33504 -23.98934,0 -43.43655,-14.92461 -43.43655,-33.33504 0,-18.41043 19.44721,-33.33503 43.43655,-33.33503 23.98935,0 43.43656,14.9246 43.43656,33.33503 z"
         sodipodi:ry="33.335033"
         sodipodi:rx="43.436558"
         sodipodi:cy="231.29942"
         sodipodi:cx="230.31477"
         id="path2989-2-8-0"
         style="fill:none;stroke:#000000;stroke-width:11.56561756;stroke-miterlimit:4;stroke-opacity:1;stroke-dasharray:none"
         sodipodi:type="arc" />
      <path
         style="fill:none;stroke:#000000;stroke-width:1px;stroke-linecap:butt;stroke-linejoin:miter;stroke-opacity:1"
         d="m 771.13648,855.73057 99.28571,0"
         id="path4110-66"
         inkscape:connector-curvature="0" />
      <path
         style="fill:none;stroke:#000000;stroke-width:1px;stroke-linecap:butt;stroke-linejoin:miter;stroke-opacity:1"
         d="m 891.13648,856.44486 130.00002,63.57142"
         id="path4112-1"
         inkscape:connector-curvature="0" />
      <path
         style="fill:none;stroke:#000000;stroke-width:1px;stroke-linecap:butt;stroke-linejoin:miter;stroke-opacity:1"
         d="M 1022.5651,932.15913 890.42219,1002.1591"
         id="path4114-8"
         inkscape:connector-curvature="0" />
      <path
         style="fill:none;stroke:#000000;stroke-width:1px;stroke-linecap:butt;stroke-linejoin:miter;stroke-opacity:1"
         d="m 881.85076,995.73055 0,-130.71427"
         id="path4116-49"
         inkscape:connector-curvature="0" />
      <path
         style="fill:none;stroke:#000000;stroke-width:1px;stroke-linecap:butt;stroke-linejoin:miter;stroke-opacity:1"
         d="m 768.99362,1006.4448 101.42857,0"
         id="path4118-6"
         inkscape:connector-curvature="0" />
      <path
         style="fill:none;stroke:#000000;stroke-width:1px;stroke-linecap:butt;stroke-linejoin:miter;stroke-opacity:1"
         d="m 760.42219,995.01625 0,-129.99997"
         id="path4120-3"
         inkscape:connector-curvature="0" />
      <flowRoot
         xml:space="preserve"
         id="flowRoot4278"
         style="font-size:40px;font-style:normal;font-weight:normal;line-height:125%;letter-spacing:0px;word-spacing:0px;fill:#000000;fill-opacity:1;stroke:none;font-family:Sans"
         transform="translate(12.121375,771.14627)"><flowRegion
           id="flowRegion4280"><rect
             id="rect4282"
             width="88.893425"
             height="40.406101"
             x="96.974648"
             y="14.380644" /></flowRegion><flowPara
           id="flowPara4284">(1)</flowPara></flowRoot>      <flowRoot
         xml:space="preserve"
         id="flowRoot4278-7"
         style="font-size:40px;font-style:normal;font-weight:normal;line-height:125%;letter-spacing:0px;word-spacing:0px;fill:#000000;fill-opacity:1;stroke:none;font-family:Sans"
         transform="translate(348.8014,771.14627)"><flowRegion
           id="flowRegion4280-8"><rect
             id="rect4282-8"
             width="88.893425"
             height="40.406101"
             x="96.974648"
             y="14.380644" /></flowRegion><flowPara
           id="flowPara4284-2">(2)</flowPara></flowRoot>      <flowRoot
         xml:space="preserve"
         id="flowRoot4278-9"
         style="font-size:40px;font-style:normal;font-weight:normal;line-height:125%;letter-spacing:0px;word-spacing:0px;fill:#000000;fill-opacity:1;stroke:none;font-family:Sans"
         transform="translate(742.76138,771.14627)"><flowRegion
           id="flowRegion4280-1"><rect
             id="rect4282-3"
             width="88.893425"
             height="40.406101"
             x="96.974648"
             y="14.380644" /></flowRegion><flowPara
           id="flowPara4284-5">(3)</flowPara></flowRoot>    </g>
  </g>
</svg>
