<?xml version="1.0" encoding="UTF-8" standalone="no"?>
<!-- Created with Inkscape (http://www.inkscape.org/) -->

<svg
   xmlns:dc="http://purl.org/dc/elements/1.1/"
   xmlns:cc="http://creativecommons.org/ns#"
   xmlns:rdf="http://www.w3.org/1999/02/22-rdf-syntax-ns#"
   xmlns:svg="http://www.w3.org/2000/svg"
   xmlns="http://www.w3.org/2000/svg"
   xmlns:sodipodi="http://sodipodi.sourceforge.net/DTD/sodipodi-0.dtd"
   xmlns:inkscape="http://www.inkscape.org/namespaces/inkscape"
   width="465"
   height="410"
   id="svg2"
   version="1.1"
   inkscape:version="0.48.2 r9819"
   sodipodi:docname="graph1.pdf">
  <defs
     id="defs4" />
  <sodipodi:namedview
     id="base"
     pagecolor="#ffffff"
     bordercolor="#666666"
     borderopacity="1.0"
     inkscape:pageopacity="0.0"
     inkscape:pageshadow="2"
     inkscape:zoom="0.98994949"
     inkscape:cx="279.82538"
     inkscape:cy="249.75383"
     inkscape:document-units="px"
     inkscape:current-layer="g3759"
     showgrid="false"
     inkscape:window-width="1360"
     inkscape:window-height="706"
     inkscape:window-x="-8"
     inkscape:window-y="-8"
     inkscape:window-maximized="1" />
  <metadata
     id="metadata7">
    <rdf:RDF>
      <cc:Work
         rdf:about="">
        <dc:format>image/svg+xml</dc:format>
        <dc:type
           rdf:resource="http://purl.org/dc/dcmitype/StillImage" />
        <dc:title></dc:title>
      </cc:Work>
    </rdf:RDF>
  </metadata>
  <g
     inkscape:label="Layer 1"
     inkscape:groupmode="layer"
     id="layer1"
     transform="translate(0,-642.36218)">
    <g
       id="g3759">
      <path
         transform="matrix(0.22723498,0,0,0.29609406,27.875104,668.29959)"
         d="m 273.75133,231.29942 a 43.436558,33.335033 0 1 1 -86.87311,0 43.436558,33.335033 0 1 1 86.87311,0 z"
         sodipodi:ry="33.335033"
         sodipodi:rx="43.436558"
         sodipodi:cy="231.29942"
         sodipodi:cx="230.31477"
         id="path2989"
         style="fill:none;stroke:#000000;stroke-width:11.56561756;stroke-miterlimit:4;stroke-opacity:1;stroke-dasharray:none"
         sodipodi:type="arc" />
      <path
         transform="matrix(0.22723498,0,0,0.29609406,204.24317,668.7082)"
         d="m 273.75133,231.29942 a 43.436558,33.335033 0 1 1 -86.87311,0 43.436558,33.335033 0 1 1 86.87311,0 z"
         sodipodi:ry="33.335033"
         sodipodi:rx="43.436558"
         sodipodi:cy="231.29942"
         sodipodi:cx="230.31477"
         id="path2989-1"
         style="fill:none;stroke:#000000;stroke-width:11.56561756;stroke-miterlimit:4;stroke-opacity:1;stroke-dasharray:none"
         sodipodi:type="arc" />
      <path
         transform="matrix(0.22723498,0,0,0.29609406,110.29898,775.78437)"
         d="m 273.75133,231.29942 a 43.436558,33.335033 0 1 1 -86.87311,0 43.436558,33.335033 0 1 1 86.87311,0 z"
         sodipodi:ry="33.335033"
         sodipodi:rx="43.436558"
         sodipodi:cy="231.29942"
         sodipodi:cx="230.31477"
         id="path2989-7"
         style="fill:none;stroke:#000000;stroke-width:11.56561756;stroke-miterlimit:4;stroke-opacity:1;stroke-dasharray:none"
         sodipodi:type="arc" />
      <path
         transform="matrix(0.22723498,0,0,0.29609406,215.35485,855.58642)"
         d="m 273.75133,231.29942 a 43.436558,33.335033 0 1 1 -86.87311,0 43.436558,33.335033 0 1 1 86.87311,0 z"
         sodipodi:ry="33.335033"
         sodipodi:rx="43.436558"
         sodipodi:cy="231.29942"
         sodipodi:cx="230.31477"
         id="path2989-4"
         style="fill:none;stroke:#000000;stroke-width:11.56561756;stroke-miterlimit:4;stroke-opacity:1;stroke-dasharray:none"
         sodipodi:type="arc" />
      <path
         transform="matrix(0.22723498,0,0,0.29609406,296.16705,763.66253)"
         d="m 273.75133,231.29942 a 43.436558,33.335033 0 1 1 -86.87311,0 43.436558,33.335033 0 1 1 86.87311,0 z"
         sodipodi:ry="33.335033"
         sodipodi:rx="43.436558"
         sodipodi:cy="231.29942"
         sodipodi:cx="230.31477"
         id="path2989-0"
         style="fill:none;stroke:#000000;stroke-width:11.56561756;stroke-miterlimit:4;stroke-opacity:1;stroke-dasharray:none"
         sodipodi:type="arc" />
      <path
         transform="matrix(0.22723498,0,0,0.29609406,343.64422,847.5052)"
         d="m 273.75133,231.29942 a 43.436558,33.335033 0 1 1 -86.87311,0 43.436558,33.335033 0 1 1 86.87311,0 z"
         sodipodi:ry="33.335033"
         sodipodi:rx="43.436558"
         sodipodi:cy="231.29942"
         sodipodi:cx="230.31477"
         id="path2989-9"
         style="fill:none;stroke:#000000;stroke-width:11.56561756;stroke-miterlimit:4;stroke-opacity:1;stroke-dasharray:none"
         sodipodi:type="arc" />
      <path
         transform="matrix(0.22723498,0,0,0.29609406,284.04522,938.41892)"
         d="m 273.75133,231.29942 a 43.436558,33.335033 0 1 1 -86.87311,0 43.436558,33.335033 0 1 1 86.87311,0 z"
         sodipodi:ry="33.335033"
         sodipodi:rx="43.436558"
         sodipodi:cy="231.29942"
         sodipodi:cx="230.31477"
         id="path2989-48"
         style="fill:none;stroke:#000000;stroke-width:11.56561756;stroke-miterlimit:4;stroke-opacity:1;stroke-dasharray:none"
         sodipodi:type="arc" />
      <path
         transform="matrix(0.22723498,0,0,0.29609406,126.46142,963.67274)"
         d="m 273.75133,231.29942 a 43.436558,33.335033 0 1 1 -86.87311,0 43.436558,33.335033 0 1 1 86.87311,0 z"
         sodipodi:ry="33.335033"
         sodipodi:rx="43.436558"
         sodipodi:cy="231.29942"
         sodipodi:cx="230.31477"
         id="path2989-8"
         style="fill:none;stroke:#000000;stroke-width:11.56561756;stroke-miterlimit:4;stroke-opacity:1;stroke-dasharray:none"
         sodipodi:type="arc" />
      <path
         transform="matrix(0.22723498,0,0,0.29609406,74.943644,878.81992)"
         d="m 273.75133,231.29942 a 43.436558,33.335033 0 1 1 -86.87311,0 43.436558,33.335033 0 1 1 86.87311,0 z"
         sodipodi:ry="33.335033"
         sodipodi:rx="43.436558"
         sodipodi:cy="231.29942"
         sodipodi:cx="230.31477"
         id="path2989-2"
         style="fill:none;stroke:#000000;stroke-width:11.56561756;stroke-miterlimit:4;stroke-opacity:1;stroke-dasharray:none"
         sodipodi:type="arc" />
      <path
         transform="matrix(0.22723498,0,0,0.29609406,2.2126648,778.81482)"
         d="m 273.75133,231.29942 a 43.436558,33.335033 0 1 1 -86.87311,0 43.436558,33.335033 0 1 1 86.87311,0 z"
         sodipodi:ry="33.335033"
         sodipodi:rx="43.436558"
         sodipodi:cy="231.29942"
         sodipodi:cx="230.31477"
         id="path2989-45"
         style="fill:none;stroke:#000000;stroke-width:11.56561756;stroke-miterlimit:4;stroke-opacity:1;stroke-dasharray:none"
         sodipodi:type="arc" />
      <path
         transform="matrix(0.22723498,0,0,0.29609406,-45.264505,879.83008)"
         d="m 273.75133,231.29942 a 43.436558,33.335033 0 1 1 -86.87311,0 43.436558,33.335033 0 1 1 86.87311,0 z"
         sodipodi:ry="33.335033"
         sodipodi:rx="43.436558"
         sodipodi:cy="231.29942"
         sodipodi:cx="230.31477"
         id="path2989-5"
         style="fill:none;stroke:#000000;stroke-width:11.56561756;stroke-miterlimit:4;stroke-opacity:1;stroke-dasharray:none"
         sodipodi:type="arc" />
      <path
         transform="matrix(0.22723498,0,0,0.29609406,0.19235978,952.56106)"
         d="m 273.75133,231.29942 a 43.436558,33.335033 0 1 1 -86.87311,0 43.436558,33.335033 0 1 1 86.87311,0 z"
         sodipodi:ry="33.335033"
         sodipodi:rx="43.436558"
         sodipodi:cy="231.29942"
         sodipodi:cx="230.31477"
         id="path2989-17"
         style="fill:none;stroke:#000000;stroke-width:11.56561756;stroke-miterlimit:4;stroke-opacity:1;stroke-dasharray:none"
         sodipodi:type="arc" />
      <path
         transform="matrix(0.22723498,0,0,0.29609406,139.59341,601.02797)"
         d="m 273.75133,231.29942 a 43.436558,33.335033 0 1 1 -86.87311,0 43.436558,33.335033 0 1 1 86.87311,0 z"
         sodipodi:ry="33.335033"
         sodipodi:rx="43.436558"
         sodipodi:cy="231.29942"
         sodipodi:cx="230.31477"
         id="path2989-11"
         style="fill:none;stroke:#000000;stroke-width:11.56561756;stroke-miterlimit:4;stroke-opacity:1;stroke-dasharray:none"
         sodipodi:type="arc" />
      <path
         transform="matrix(0.22723498,0,0,0.29609406,298.18736,616.18026)"
         d="m 273.75133,231.29942 a 43.436558,33.335033 0 1 1 -86.87311,0 43.436558,33.335033 0 1 1 86.87311,0 z"
         sodipodi:ry="33.335033"
         sodipodi:rx="43.436558"
         sodipodi:cy="231.29942"
         sodipodi:cx="230.31477"
         id="path2989-52"
         style="fill:none;stroke:#000000;stroke-width:11.56561756;stroke-miterlimit:4;stroke-opacity:1;stroke-dasharray:none"
         sodipodi:type="arc" />
      <path
         transform="matrix(0.22723498,0,0,0.29609406,380.00971,677.79957)"
         d="m 273.75133,231.29942 a 43.436558,33.335033 0 1 1 -86.87311,0 43.436558,33.335033 0 1 1 86.87311,0 z"
         sodipodi:ry="33.335033"
         sodipodi:rx="43.436558"
         sodipodi:cy="231.29942"
         sodipodi:cx="230.31477"
         id="path2989-76"
         style="fill:none;stroke:#000000;stroke-width:11.56561756;stroke-miterlimit:4;stroke-opacity:1;stroke-dasharray:none"
         sodipodi:type="arc" />
      <path
         transform="matrix(0.22723498,0,0,0.29609406,393.1417,590.92645)"
         d="m 273.75133,231.29942 a 43.436558,33.335033 0 1 1 -86.87311,0 43.436558,33.335033 0 1 1 86.87311,0 z"
         sodipodi:ry="33.335033"
         sodipodi:rx="43.436558"
         sodipodi:cy="231.29942"
         sodipodi:cx="230.31477"
         id="path2989-14"
         style="fill:none;stroke:#000000;stroke-width:11.56561756;stroke-miterlimit:4;stroke-opacity:1;stroke-dasharray:none"
         sodipodi:type="arc" />
      <path
         style="fill:none;stroke:#000000;stroke-width:2;stroke-linecap:butt;stroke-linejoin:miter;stroke-miterlimit:4;stroke-opacity:1;stroke-dasharray:none"
         d="M 87.883274,728.60828 183.84776,674.56512"
         id="path3878"
         inkscape:connector-curvature="0" />
      <path
         style="fill:none;stroke:#000000;stroke-width:2;stroke-linecap:butt;stroke-linejoin:miter;stroke-miterlimit:4;stroke-opacity:1;stroke-dasharray:none"
         d="M 250.1432,728.96007 200.9003,676.86003"
         id="path3880"
         inkscape:connector-curvature="0" />
      <path
         style="fill:none;stroke:#000000;stroke-width:2;stroke-linecap:butt;stroke-linejoin:miter;stroke-miterlimit:4;stroke-opacity:1;stroke-dasharray:none"
         d="M 165.1646,832.55291 189.45032,679.69577"
         id="path3882"
         inkscape:connector-curvature="0" />
      <path
         style="fill:none;stroke:#000000;stroke-width:2;stroke-linecap:butt;stroke-linejoin:miter;stroke-miterlimit:4;stroke-opacity:1;stroke-dasharray:none"
         d="m 263.73603,729.69577 75.71429,-40"
         id="path3884"
         inkscape:connector-curvature="0" />
      <path
         style="fill:none;stroke:#000000;stroke-width:2;stroke-linecap:butt;stroke-linejoin:miter;stroke-miterlimit:4;stroke-opacity:1;stroke-dasharray:none"
         d="m 356.59317,675.41005 77.14286,-12.85714"
         id="path3886"
         inkscape:connector-curvature="0" />
      <path
         style="fill:none;stroke:#000000;stroke-width:2;stroke-linecap:butt;stroke-linejoin:miter;stroke-miterlimit:4;stroke-opacity:1;stroke-dasharray:none"
         d="m 355.52174,693.2672 -6.07142,127.49999"
         id="path3890"
         inkscape:connector-curvature="0" />
      <path
         style="fill:none;stroke:#000000;stroke-width:2;stroke-linecap:butt;stroke-linejoin:miter;stroke-miterlimit:4;stroke-opacity:1;stroke-dasharray:none"
         d="m 358.37889,690.7672 66.78571,48.57142"
         id="path3892"
         inkscape:connector-curvature="0" />
      <path
         style="fill:none;stroke:#000000;stroke-width:2;stroke-linecap:butt;stroke-linejoin:miter;stroke-miterlimit:4;stroke-opacity:1;stroke-dasharray:none"
         d="M 124.45032,937.55291 62.307463,853.98148"
         id="path3894"
         inkscape:connector-curvature="0" />
      <path
         style="fill:none;stroke:#000000;stroke-width:2;stroke-linecap:butt;stroke-linejoin:miter;stroke-miterlimit:4;stroke-opacity:1;stroke-dasharray:none"
         d="m 63.736034,845.41005 87.857136,-2.85714"
         id="path3896"
         inkscape:connector-curvature="0" />
      <path
         style="fill:none;stroke:#000000;stroke-width:2;stroke-linecap:butt;stroke-linejoin:miter;stroke-miterlimit:4;stroke-opacity:1;stroke-dasharray:none"
         d="m 165.87889,853.26719 93.57143,62.14286"
         id="path3898"
         inkscape:connector-curvature="0" />
      <path
         style="fill:none;stroke:#000000;stroke-width:2;stroke-linecap:butt;stroke-linejoin:miter;stroke-miterlimit:4;stroke-opacity:1;stroke-dasharray:none"
         d="M 259.45032,928.98148 63.736034,852.55291"
         id="path3900"
         inkscape:connector-curvature="0" />
      <path
         style="fill:none;stroke:#000000;stroke-width:2;stroke-linecap:butt;stroke-linejoin:miter;stroke-miterlimit:4;stroke-opacity:1;stroke-dasharray:none"
         d="m 267.30746,933.26719 -80,92.85711"
         id="path3902"
         inkscape:connector-curvature="0" />
      <path
         style="fill:none;stroke:#000000;stroke-width:2;stroke-linecap:butt;stroke-linejoin:miter;stroke-miterlimit:4;stroke-opacity:1;stroke-dasharray:none"
         d="M 60.878891,1014.6958 121.59317,956.12434"
         id="path3904"
         inkscape:connector-curvature="0" />
      <path
         style="fill:none;stroke:#000000;stroke-width:2;stroke-linecap:butt;stroke-linejoin:miter;stroke-miterlimit:4;stroke-opacity:1;stroke-dasharray:none"
         d="m 15.878891,945.41005 99.999999,2.14286"
         id="path3906"
         inkscape:connector-curvature="0" />
      <path
         style="fill:none;stroke:#000000;stroke-width:2;stroke-linecap:butt;stroke-linejoin:miter;stroke-miterlimit:4;stroke-opacity:1;stroke-dasharray:none"
         d="m 131.59317,956.12434 40.71429,66.42856"
         id="path3908"
         inkscape:connector-curvature="0" />
      <path
         style="fill:none;stroke:#000000;stroke-width:2;stroke-linecap:butt;stroke-linejoin:miter;stroke-miterlimit:4;stroke-opacity:1;stroke-dasharray:none"
         d="m 188.73603,1033.2672 137.85714,-22.1429"
         id="path3910"
         inkscape:connector-curvature="0" />
      <path
         style="fill:none;stroke:#000000;stroke-width:2;stroke-linecap:butt;stroke-linejoin:miter;stroke-miterlimit:4;stroke-opacity:1;stroke-dasharray:none"
         d="m 340.1646,996.83862 54.28572,-70.71428"
         id="path3912"
         inkscape:connector-curvature="0" />
      <path
         style="fill:none;stroke:#000000;stroke-width:2;stroke-linecap:butt;stroke-linejoin:miter;stroke-miterlimit:4;stroke-opacity:1;stroke-dasharray:none"
         d="m 387.30746,911.12434 -215,-65.71429"
         id="path3914"
         inkscape:connector-curvature="0" />
      <path
         style="fill:none;stroke:#000000;stroke-width:2;stroke-linecap:butt;stroke-linejoin:miter;stroke-miterlimit:4;stroke-opacity:1;stroke-dasharray:none"
         d="m 275.87889,927.55291 110.71428,-7.14286"
         id="path3916"
         inkscape:connector-curvature="0" />
      <flowRoot
         xml:space="preserve"
         id="flowRoot3918"
         style="font-size:20px;font-style:normal;font-weight:normal;line-height:125%;letter-spacing:0px;word-spacing:0px;fill:#000000;fill-opacity:1;stroke:none;font-family:Sans"
         transform="matrix(1.0606344,0,0,0.94484985,1.2827188,676.62755)"><flowRegion
           id="flowRegion3920"><rect
             id="rect3922"
             width="88.893425"
             height="62.629459"
             x="27.274118"
             y="144.4263"
             style="font-size:20px" /></flowRegion><flowPara
           id="flowPara3924">P<flowSpan
   style="font-size:65.00091553%;baseline-shift:sub"
   id="flowSpan3926">1</flowSpan></flowPara></flowRoot>      <flowRoot
         xml:space="preserve"
         id="flowRoot3918-2"
         style="font-size:20px;font-style:normal;font-weight:normal;line-height:125%;letter-spacing:0px;word-spacing:0px;fill:#000000;fill-opacity:1;stroke:none;font-family:Sans"
         transform="matrix(1.0606344,0,0,0.94484985,292.93329,660.51741)"><flowRegion
           id="flowRegion3920-3"><rect
             id="rect3922-2"
             width="88.893425"
             height="62.629459"
             x="27.274118"
             y="144.4263"
             style="font-size:20px" /></flowRegion><flowPara
           id="flowPara3924-2">P<flowSpan
   style="font-size:64.9307251%;baseline-shift:sub"
   id="flowSpan3958">2</flowSpan></flowPara></flowRoot>      <flowRoot
         xml:space="preserve"
         id="flowRoot3918-6"
         style="font-size:20px;font-style:normal;font-weight:normal;line-height:125%;letter-spacing:0px;word-spacing:0px;fill:#000000;fill-opacity:1;stroke:none;font-family:Sans"
         transform="matrix(1.0606344,0,0,0.94484985,-7.0820182,855.47684)"><flowRegion
           id="flowRegion3920-8"><rect
             id="rect3922-5"
             width="88.893425"
             height="62.629459"
             x="27.274118"
             y="144.4263"
             style="font-size:20px" /></flowRegion><flowPara
           id="flowPara3924-7">E<flowSpan
   style="font-size:64.9307251%;baseline-shift:sub"
   id="flowSpan3977">2</flowSpan></flowPara></flowRoot>      <flowRoot
         xml:space="preserve"
         id="flowRoot3918-6-1"
         style="font-size:20px;font-style:normal;font-weight:normal;line-height:125%;letter-spacing:0px;word-spacing:0px;fill:#000000;fill-opacity:1;stroke:none;font-family:Sans"
         transform="matrix(1.0606344,0,0,0.94484985,194.12427,600.87934)"><flowRegion
           id="flowRegion3920-8-8"><rect
             id="rect3922-5-9"
             width="88.893425"
             height="62.629459"
             x="27.274118"
             y="144.4263"
             style="font-size:20px" /></flowRegion><flowPara
           id="flowPara3924-7-2">E<flowSpan
   style="font-size:64.9307251%;baseline-shift:sub"
   id="flowSpan4009">1</flowSpan></flowPara></flowRoot>      <flowRoot
         xml:space="preserve"
         id="flowRoot3918-6-9"
         style="font-size:20px;font-style:normal;font-weight:normal;line-height:125%;letter-spacing:0px;word-spacing:0px;fill:#000000;fill-opacity:1;stroke:none;font-family:Sans"
         transform="matrix(1.0606344,0,0,0.94484985,287.6957,838.0222)"><flowRegion
           id="flowRegion3920-8-5"><rect
             id="rect3922-5-4"
             width="88.893425"
             height="62.629459"
             x="27.274118"
             y="144.4263"
             style="font-size:20px" /></flowRegion><flowPara
           id="flowPara3924-7-3">E<flowSpan
   style="font-size:64.9307251%;baseline-shift:sub"
   id="flowSpan4026">3</flowSpan></flowPara></flowRoot>    </g>
  </g>
</svg>
