<?xml version="1.0" encoding="UTF-8" standalone="no"?>
<!-- Created with Inkscape (http://www.inkscape.org/) -->

<svg
   xmlns:dc="http://purl.org/dc/elements/1.1/"
   xmlns:cc="http://creativecommons.org/ns#"
   xmlns:rdf="http://www.w3.org/1999/02/22-rdf-syntax-ns#"
   xmlns:svg="http://www.w3.org/2000/svg"
   xmlns="http://www.w3.org/2000/svg"
   xmlns:sodipodi="http://sodipodi.sourceforge.net/DTD/sodipodi-0.dtd"
   xmlns:inkscape="http://www.inkscape.org/namespaces/inkscape"
   width="400"
   height="345"
   id="svg2"
   version="1.1"
   inkscape:version="0.48.2 r9819"
   sodipodi:docname="visPoly.pdf">
  <defs
     id="defs4" />
  <sodipodi:namedview
     id="base"
     pagecolor="#ffffff"
     bordercolor="#666666"
     borderopacity="1.0"
     inkscape:pageopacity="0.0"
     inkscape:pageshadow="2"
     inkscape:zoom="1"
     inkscape:cx="281.07971"
     inkscape:cy="63.852665"
     inkscape:document-units="px"
     inkscape:current-layer="layer1"
     showgrid="false"
     inkscape:window-width="1360"
     inkscape:window-height="706"
     inkscape:window-x="-8"
     inkscape:window-y="-8"
     inkscape:window-maximized="1" />
  <metadata
     id="metadata7">
    <rdf:RDF>
      <cc:Work
         rdf:about="">
        <dc:format>image/svg+xml</dc:format>
        <dc:type
           rdf:resource="http://purl.org/dc/dcmitype/StillImage" />
        <dc:title></dc:title>
      </cc:Work>
    </rdf:RDF>
  </metadata>
  <g
     inkscape:label="Layer 1"
     inkscape:groupmode="layer"
     id="layer1"
     transform="translate(0,-707.36218)">
    <rect
       style="fill:none;stroke:#000000;stroke-width:1;stroke-miterlimit:4;stroke-opacity:1;stroke-dasharray:none"
       id="rect3753"
       width="365.59894"
       height="306.43033"
       x="18.35561"
       y="730.95166" />
    <g
       style="font-size:40px;font-style:normal;font-weight:normal;line-height:125%;letter-spacing:0px;word-spacing:0px;fill:#000000;fill-opacity:1;stroke:none;font-family:Sans"
       id="flowRoot3757" />
    <path
       style="fill:none;stroke:#000000;stroke-width:1px;stroke-linecap:butt;stroke-linejoin:miter;stroke-opacity:1"
       d="m 92.603029,752.77048 53.000001,52.99999 -35.29775,61.1375 -74.906731,-43.24742 43.06505,-24.86363 z"
       id="path3769"
       inkscape:connector-curvature="0" />
    <path
       style="fill:none;stroke:#000000;stroke-width:1px;stroke-linecap:butt;stroke-linejoin:miter;stroke-opacity:1"
       d="m 273.60303,861.77047 36.16377,62.6375 38.38046,-22.15897 -15.24584,-56.89823 -28.43934,-28.43934 z"
       id="path3771"
       inkscape:connector-curvature="0" />
    <path
       style="fill:none;stroke:#000000;stroke-width:1px;stroke-linecap:butt;stroke-linejoin:miter;stroke-opacity:1"
       d="m 199.60303,798.77047 11.30385,42.18654 30.02147,-51.99872 -21.25112,-36.808 z"
       id="path3773"
       inkscape:connector-curvature="0" />
    <path
       style="fill:none;stroke:#000000;stroke-width:1px;stroke-linecap:butt;stroke-linejoin:miter;stroke-opacity:1"
       d="M 289.20668,889.02051 208.5965,999.32917 117.97309,852.64053"
       id="path3775"
       inkscape:connector-curvature="0" />
    <path
       style="fill:none;stroke:#000000;stroke-width:1px;stroke-linecap:butt;stroke-linejoin:miter;stroke-opacity:1"
       d="m 272.97309,860.64053 55,-130"
       id="path3777"
       inkscape:connector-curvature="0" />
    <path
       style="fill:none;stroke:#000000;stroke-width:1px;stroke-linecap:butt;stroke-linejoin:miter;stroke-opacity:1"
       d="m 241.47309,788.64053 7.5,-57.5"
       id="path3779"
       inkscape:connector-curvature="0" />
    <path
       style="fill:none;stroke:#000000;stroke-width:1px;stroke-linecap:butt;stroke-linejoin:miter;stroke-opacity:1"
       d="m 198.97309,798.14053 -9.5,-67"
       id="path3781"
       inkscape:connector-curvature="0" />
    <path
       style="fill:none;stroke:#000000;stroke-width:1px;stroke-linecap:butt;stroke-linejoin:miter;stroke-opacity:1"
       d="m 145.47309,805.64053 -22.5,-75"
       id="path3783"
       inkscape:connector-curvature="0" />
    <path
       style="fill:#ffff00;fill-opacity:1;stroke:none"
       d="m 217.62872,981.29922 c -4.76511,-2.84088 -11.69127,-3.39237 -17.04815,-1.35745 l -2.44775,0.92983 -39.09601,-63.28777 c -21.5028,-34.80828 -39.22448,-63.62257 -39.3815,-64.03176 -0.16812,-0.43812 5.26675,-10.35969 13.21982,-24.13331 l 13.5053,-23.38932 -9.01734,-30.10814 c -4.95954,-16.55948 -9.11444,-30.38939 -9.23312,-30.73314 -0.17111,-0.49565 6.27448,-0.625 31.14422,-0.625 l 31.36,0 3.70842,26.375 c 2.03963,14.50625 3.97784,27.05 4.30713,27.875 0.32929,0.825 3.14719,11.02815 6.262,22.67367 4.9642,18.55989 5.74614,21.0604 6.3343,20.25604 0.36904,-0.5047 7.31209,-12.39535 15.42899,-26.42368 8.11691,-14.02831 14.96714,-25.84353 15.22274,-26.25603 0.36386,-0.58721 5.98505,-41.90627 5.98505,-43.99364 0,-0.3372 12.21305,-0.50636 36.55831,-0.50636 34.57804,0 36.54496,0.0474 36.31177,0.875 -0.1356,0.48125 -11.06823,26.43529 -24.29473,57.67564 -20.90523,49.3771 -23.99306,56.99006 -23.62635,58.25 0.23202,0.79714 3.80507,7.29388 7.94012,14.4372 l 7.51826,12.98785 -1.06886,1.51215 c -3.48886,4.93577 -66.53173,91.11719 -67.00853,91.60259 -0.44479,0.4528 -1.04719,0.31191 -2.58409,-0.60437 l 0,0 z"
       id="path3787"
       inkscape:connector-curvature="0" />
    <path
       style="fill:#ffff00;fill-opacity:1;stroke:none"
       d="m 126.00773,738.18816 -1.98596,-6.625 32.36974,0 32.36975,0 0.5514,3.70737 c 0.30327,2.03905 0.6987,4.96068 0.87874,6.49252 l 0.32734,2.78515 -31.26252,0.13248 -31.26253,0.13248 -1.98596,-6.625 z"
       id="path3789"
       inkscape:connector-curvature="0" />
    <path
       style="fill:#ffff00;fill-opacity:1;stroke:none"
       d="m 284.28978,744.6849 -36.34304,-0.12826 0.24319,-1.62174 c 0.13375,-0.89196 0.52057,-3.75924 0.85959,-6.37174 l 0.61641,-4.75 38.35844,-0.12811 c 21.09715,-0.0705 38.35845,0.0507 38.35845,0.26923 0,0.62565 -5.015,12.33002 -5.40256,12.60888 -0.19109,0.1375 -16.70181,0.19228 -36.69048,0.12174 l 0,0 z"
       id="path3791"
       inkscape:connector-curvature="0" />
    <path
       style="fill:#2b58ff;fill-opacity:1;stroke:none"
       d="m 207.56633,975.95486 c -11.03803,0 -19.9633,8.95463 -19.9633,20 0,11.04534 8.92527,20.00004 19.9633,20.00004 11.03804,0 20.0367,-8.9547 20.0367,-20.00004 0,-11.04537 -8.99866,-20 -20.0367,-20 z m -8.80733,8.68421 10.27523,0 c 1.80902,2e-5 3.22937,0.0939 4.18348,0.26316 1.3382,0.21772 2.3982,0.63926 3.30275,1.25 0.90452,0.61078 1.6504,1.46522 2.20184,2.56579 0.55136,1.10059 0.80731,2.30017 0.80733,3.61842 -2e-5,2.26166 -0.72734,4.15747 -2.20183,5.72368 -1.47454,1.56623 -4.14645,2.36848 -8,2.36848 l -6.97247,0 0,10.7894 -3.59633,0 0,-26.57893 z m 3.59633,3.1579 0,9.47368 7.04587,0 c 2.32948,0 4.01191,-0.40341 4.99082,-1.25 0.97886,-0.84659 1.46789,-2.08242 1.46789,-3.61842 0,-1.11266 -0.30457,-2.03674 -0.88073,-2.82895 -0.57619,-0.79215 -1.33355,-1.32495 -2.27523,-1.57895 -0.60717,-0.15726 -1.74054,-0.19726 -3.37615,-0.19726 l -6.97247,0 z"
       id="path3755"
       inkscape:connector-curvature="0" />
    <path
       style="fill:#ffffff;fill-opacity:1;stroke:none"
       d="m 199.43406,997.93704 0,-13.34664 7.04224,0 c 8.05413,0 10.49432,0.91458 11.87918,4.45231 0.70887,1.81083 0.72364,2.91888 0.0697,5.22832 -1.16531,4.11559 -3.1822,5.2409 -10.22672,5.70594 l -5.96145,0.39353 0,5.4566 c 0,4.9623 -0.12697,5.4566 -1.40148,5.4566 -1.34959,0 -1.4015,-0.4943 -1.4015,-13.34666 z m 14.49659,-1.32404 c 0.82907,-0.55781 2.32125,-4.04922 2.32125,-5.43126 0,-0.39979 -0.774,-1.5459 -1.72,-2.54691 -1.52224,-1.61073 -2.32794,-1.81999 -7.00743,-1.81999 l -5.28743,0 0,5.19036 0,5.19036 5.43076,-0.0113 c 2.98692,-0.006 5.8052,-0.26328 6.26285,-0.57121 l 0,0 z"
       id="path3793"
       inkscape:connector-curvature="0" />
    <flowRoot
       xml:space="preserve"
       id="flowRoot3795"
       style="font-size:40px;font-style:normal;font-weight:normal;line-height:125%;letter-spacing:0px;word-spacing:0px;fill:#000000;fill-opacity:1;stroke:none;font-family:Sans"
       transform="translate(-32.526912,704.27835)"><flowRegion
         id="flowRegion3797"><rect
           id="rect3799"
           width="214"
           height="103"
           x="65.5"
           y="224.86218" /></flowRegion><flowPara
         id="flowPara3801"
         style="font-size:18px">not visible</flowPara></flowRoot>    <flowRoot
       transform="translate(121.21479,643.06213)"
       xml:space="preserve"
       id="flowRoot3795-1"
       style="font-size:40px;font-style:normal;font-weight:normal;line-height:125%;letter-spacing:0px;word-spacing:0px;fill:#000000;fill-opacity:1;stroke:none;font-family:Sans"><flowRegion
         id="flowRegion3797-7"><rect
           id="rect3799-4"
           width="214"
           height="103"
           x="65.5"
           y="224.86218" /></flowRegion><flowPara
         id="flowPara3801-0"
         style="font-size:18px">visible</flowPara></flowRoot>  </g>
</svg>
